<?xml version="1.0" encoding="utf-8"?><svg version="1.2" baseProfile="tiny" xmlns="http://www.w3.org/2000/svg" xmlns:xlink="http://www.w3.org/1999/xlink" x="0px" y="0px" width="1100px" height="750px" viewBox="0 0 1100 750" xml:space="preserve"><g transform="translate(528.000000, 1.000000)"><path d="M358,435.666h-53.401V422h-20.488v13.666h-55.818v52.502c0,26.172-5.201,50.281-12.293,66.936L233.336,567c5.831-15.227,9.456-31.089,11.505-52.819l9.614,11.103c2.679-3.648,4.413-6.662,7.407-11.579v53.136h17.021v-83.749c3.625-8.089,6.147-15.227,8.511-23.475l-17.021-4.6c-5.516,19.668-14.184,36.164-25.059,52.185c0.473-7.455,0.63-13.8,0.63-19.034v-34.896H358V435.666z"/><path d="M361,474.422l-17.124-0.013V457h-17.96v17.409L285,474.422v17.884l40.916-0.013v49.062c0,3.165-1.733,4.748-5.041,4.748c-1.733,0-16.497-1.095-16.497-1.095L306.741,564l23.587-0.013c8.98,0,13.548-5.223,13.548-15.51v-56.184L361,492.306V474.422z"/><path d="M298.49,498L285,506.81c6.275,9.29,10.196,16.177,17.255,28.19L317,524.589C309.941,514.498,305.235,506.97,298.49,498z"/></g><g transform="translate(353.000000, 0.000000)"><path d="M336.157,525.524c8.823-15.224,13.657-27.902,16.859-58.377h9.519v-17.92h-42.607c2.363-6.185,6.618-16.952,8.351-24.088L310.725,421c-6.172,22.09-13.466,36.823-20.515,52.078l-16.762-0.247l0.158-23.978h20.483l-0.158-17.444h-72.95l0.158,17.444h34.505l-0.158,81.671c-4.254,1.11-4.674,1.39-9.243,2.658v-65.279h-16.701v69.244L215,540.86l5.987,19.03c27.258-6.819,57.221-17.812,76.128-26.693l-2.048-16.493c-5.042,2.379-14.844,5.414-21.619,7.951v-33.653h8.026l-2.409,3.193l14.078,10.219c2.521-3.806,4.152-6.062,6.672-11.613c4.962,16.228,8.138,20.67,14.44,31.454c-10.675,11.196-17.964,16.856-34.505,27.175L291.198,568c13.7-10.619,24.633-20.908,33.299-28.996c7.248,8.246,16.389,19.258,27.553,28.864L364,551.971C351.797,542.641,343.543,535.223,336.157,525.524z M324.49,512c-7.161-13.852-10.98-21.931-13.49-40.418c0.784-1.422,1.412-2.528,2.196-4.582H335C333.275,488.647,331.558,496.988,324.49,512z"/></g><g transform="translate(185.000000, 0.000000)"><path d="M355,469.763h-35.648v-11.896h30.152v-16.11h-30.152V422h-18.688v19.758h-29.052v16.11h29.052v11.896H268v16.899h49.178v10.45H268v17.847h49.178v28.876c0,3.633-1.727,5.37-5.025,5.37c-1.256,0-12.117-0.948-12.117-0.948L302.392,568h20.126c8.951,0,13.505-5.37,13.505-16.11v-36.931h18.506v-17.847h-18.506v-10.45H355V469.763z"/><path d="M264,438h-48v110h48V438z M233,483v-30h13v30H233z M233,531v-32h13v32H233z"/><path d="M286.544,519L273,527.06c4.94,6.82,8.445,13.175,14.181,22.94L302,540.855C296.423,532.64,292.121,526.285,286.544,519z"/></g><g transform="translate(0.000000, 6.000000)"><path d="M306.496,481.386l27.761,0.178v-9.855h-29.103v9.294c-2.687-1.113-3.799-1.505-5.854-2.618v-24.957h40.174v26.228h17.861v-39.104H299.3v-6.04h51.08V421H228.462v13.512h51.08v6.04h-56.77v39.104h17.861v-26.228h38.909v25.275c-1.897,1.113-3.794,1.749-5.848,2.543v-9.538h-28.319v9.855h27.528c-16.913,8.425-38.568,14.465-56.903,17.009l6.006,16.214c4.426-1.113,9.01-2.225,14.542-3.974v12.876h80.929c-9.326,6.04-14.858,9.061-27.187,14.147c3.091,8.154,12.23,8.756,19.6,4.769c15.174-8.107,26.081-15.26,34.3-22.89v-8.107c4.9,1.431,8.852,2.384,12.645,3.179L363,498.414C345.139,496.029,324.99,489.811,306.496,481.386z M338,510h-38.303c0-5.719,0-13.575,0-13.575h-19.845c0,0,0,8.471,0,13.575H241c20.797-6.731,35.403-14.119,48.897-22C305.137,496.373,319.267,503.433,338,510z"/><path d="M290.912,538.475c-14.732-5.008-18.31-6.13-30.561-9.96l-6.853,13.305l65.096,24.917l7.407-16.043c0,0-8.638-3.04-16.064-5.703C301.312,540.339,303.489,539.575,290.912,538.475z"/><path d="M335,459h-30v10h30V459z"/><path d="M274,459h-29v10h29V459z"/></g><path d="M345.106,228.234c30.194,0,51.656,4.468,67.049,10.426v-25.021c-13.025-4.17-33.599-8.638-66.457-8.638c-41.887,0-61.869,8.489-71.785,18.468C264.736,232.702,260,245.064,260,261s4.736,28.298,13.913,37.532C283.978,308.809,303.515,317,344.366,317c32.71,0,52.84-4.617,65.273-17.128C416.448,293.021,420,283.34,420,266.66v-13.851h-91.175v20.851h63.941c0.148,2.383,0.148,7.894-3.552,11.617c-6.66,6.702-23.09,8.936-44.847,8.936c-26.642,0-40.555-4.915-47.068-11.468c-4.736-4.915-7.253-11.915-7.253-21.745c0-9.532,2.664-16.979,7.845-22.191C303.663,233,317.724,228.234,345.106,228.234C345.106,228.234,317.724,228.234,345.106,228.234L345.106,228.234L345.106,228.234z"/><path d="M858,210h-34.335l-54.996,81.863L713.822,210H678l71.792,104h36.416l0,0L858,210L858,210z"/><path fill="#C60000" d="M670,138h-29.49L448,385h29.934L670,138z"/><path d="M629.062,223.766c-9.786-9.83-28.618-18.766-69.988-18.766c-39.887,0-60.201,8.787-70.136,18.766C479.893,232.851,475,244.17,475,261s4.893,28,13.938,37.085c9.786,9.83,29.508,18.915,70.136,18.915s60.201-8.936,69.988-18.766C638.107,289.149,643,277.83,643,261C643,244.021,638.107,232.851,629.062,223.766z M559.575,294c-26.84,0-40.707-5.533-46.672-11.516C508.28,277.848,505,271.866,505,260.5c0-11.366,2.833-17.498,7.754-22.433c6.114-6.132,19.981-11.067,46.821-11.067c26.84,0,40.26,5.085,46.523,11.366c4.921,4.935,7.903,10.768,7.903,22.134c0,11.366-2.833,17.498-7.754,22.433C599.984,289.214,586.414,294,559.575,294z"/></svg>
