<?xml version="1.0" encoding="utf-8"?><svg version="1.2" baseProfile="tiny" xmlns="http://www.w3.org/2000/svg" xmlns:xlink="http://www.w3.org/1999/xlink" x="0px" y="0px" width="1300px" height="450px" viewBox="0 0 1300 450" xml:space="preserve"><g transform="translate(425.000000, 1.000000)"><path d="M719.565,177.968H676.35v-10.989h-16.58v10.989h-45.171v42.216c0,21.044-4.209,40.43-9.948,53.822l14.029,9.566c4.719-12.244,7.652-24.998,9.31-42.471l7.78,8.928c2.168-2.933,3.571-5.357,5.994-9.31v42.726h13.774v-67.341c2.933-6.505,4.974-12.244,6.887-18.876l-13.774-3.699c-4.464,15.815-11.479,29.079-20.279,41.961c0.383-5.994,0.51-11.096,0.51-15.305v-28.059h90.681V177.968z"/><path d="M722.424,208.96l-13.863-0.01V194.92h-14.54v14.029l-33.125,0.01v14.412l33.125-0.01v39.538c0,2.551-1.403,3.826-4.081,3.826c-1.403,0-13.356-0.882-13.356-0.882l1.913,15.305l19.095-0.01c7.27,0,10.968-4.209,10.968-12.499v-45.277l13.863,0.01V208.96z"/><path d="M671.671,227.453l-10.969,7.015c5.102,7.397,8.29,12.882,14.029,22.447l11.989-8.29C680.981,240.59,677.155,234.596,671.671,227.453z"/></g><g transform="translate(285.000000, 0.000000)"><path d="M702.134,250.344c7.142-12.244,11.055-22.44,13.647-46.95h7.706v-14.412h-34.489c1.913-4.974,5.357-13.634,6.76-19.373l-14.21-3.328c-4.996,17.766-10.9,29.614-16.606,41.883l-13.568-0.199l0.128-19.284h16.58l-0.128-14.029h-59.051l0.128,14.029h27.931l-0.128,65.683c-3.444,0.893-3.783,1.118-7.482,2.138v-52.5h-13.519v55.689l-11.772,2.987l4.847,15.305c22.065-5.484,46.32-14.325,61.624-21.468l-1.658-13.264c-4.081,1.913-12.016,4.354-17.5,6.395V222.58h6.497l-1.95,2.568l11.396,8.219c2.041-3.061,3.361-4.876,5.401-9.34c4.017,13.051,6.588,16.624,11.689,25.297c-8.641,9.004-14.542,13.556-27.931,21.856l9.267,13.326c11.09-8.54,19.94-16.815,26.955-23.32c5.867,6.632,13.267,15.488,22.304,23.214l9.673-12.785C714.795,264.11,708.113,258.144,702.134,250.344z M692.696,239.717c-5.822-11.181-8.928-17.702-10.968-32.624c0.638-1.148,1.148-2.041,1.786-3.699h17.728C699.838,220.867,698.443,227.6,692.696,239.717z"/></g><g transform="translate(149.000000, 0.000000)"><path d="M717.623,205.113h-28.952v-9.606h24.488v-13.009h-24.488v-15.955h-15.177v15.955h-23.595v13.009h23.595v9.606h-26.528v13.647h39.94v8.439h-39.94v14.412h39.94v23.319c0,2.933-1.403,4.336-4.081,4.336c-1.02,0-9.841-0.765-9.841-0.765l1.913,15.943h16.346c7.27,0,10.969-4.336,10.969-13.009v-29.823h15.029v-14.412h-15.029v-8.439h15.412V205.113z"/><path d="M643.905,179.402h-39.41v88.835h39.41V179.402z M618.652,215.785v-23.809h11.096v23.809H618.652zM618.652,254.772v-26.105h11.096v26.105H618.652z"/><path d="M662.271,244.598l-10.841,6.632c3.954,5.612,6.76,10.841,11.351,18.876l11.861-7.525C670.178,255.821,666.735,250.592,662.271,244.598z"/></g><g transform="translate(0.000000, 5.000000)"><path d="M677.477,214.745l22.4,0.143v-7.908h-23.483v7.457c-2.168-0.893-3.066-1.208-4.724-2.101v-20.024h32.416v21.044h14.412v-31.375H671.67v-4.847h41.216v-10.841h-98.374v10.841h41.216v4.847H609.92v31.375h14.412v-21.044h31.395v20.279c-1.531,0.893-3.061,1.403-4.719,2.041v-7.652h-22.85v7.908h22.212c-13.647,6.76-31.12,11.606-45.915,13.647l4.847,13.009c3.571-0.893,7.27-1.786,11.734-3.189v10.331h65.301c-7.525,4.847-11.989,7.27-21.937,11.351c2.494,6.543,9.868,7.025,15.815,3.826c12.244-6.505,21.044-12.244,27.676-18.366v-6.505c3.954,1.148,7.142,1.913,10.203,2.551l4.974-13.137C708.657,226.494,692.399,221.505,677.477,214.745z M702.407,237.335h-30.772c0-4.443,0-10.545,0-10.545h-15.943c0,0,0,6.581,0,10.545H624.48c16.708-5.229,28.442-10.968,39.282-17.09C676.006,226.749,687.357,232.233,702.407,237.335z"/><path d="M665.036,260.099c-11.942-3.989-14.842-4.884-24.771-7.937l-5.53,10.527l52.77,19.838l5.974-12.694c0,0-7.002-2.422-13.022-4.543C673.463,261.592,675.226,260.99,665.036,260.099z"/><path d="M699.877,196.139h-23.949v8.163h23.949V196.139z"/><path d="M651.518,196.139h-23.36v8.163h23.36V196.139z"/></g><path d="M208.996,204.28c19.584,0,33.504,2.88,43.488,6.72v-16.128c-8.448-2.688-21.792-5.568-43.104-5.568c-27.168,0-40.128,5.472-46.56,11.904c-5.952,5.952-9.024,13.92-9.024,24.192s3.072,18.24,9.024,24.192c6.528,6.624,19.2,11.904,45.696,11.904c21.216,0,34.272-2.976,42.336-11.04c4.416-4.416,6.72-10.656,6.72-21.408v-8.928h-59.136v13.44h41.472c0.096,1.536,0.096,5.088-2.304,7.488c-4.32,4.32-14.976,5.76-29.088,5.76c-17.28,0-26.304-3.168-30.528-7.392c-3.072-3.168-4.704-7.68-4.704-14.016c0-6.144,1.728-10.944,5.088-14.304C182.116,207.352,191.236,204.28,208.996,204.28C208.996,204.28,191.236,204.28,208.996,204.28L208.996,204.28L208.996,204.28z"/><path d="M540.98,191.8h-22.176l-35.52,52.896L447.86,191.8h-23.136l46.368,67.2h23.52l0,0L540.98,191.8L540.98,191.8z"/><path fill="#C60000" d="M419.032,145.41h-19.104L275.216,305.39h19.392L419.032,145.41z"/><path d="M392.484,201.4c-6.336-6.336-18.528-12.096-45.312-12.096c-25.824,0-38.976,5.664-45.408,12.096c-5.856,5.856-9.024,13.152-9.024,24c0,10.848,3.168,18.048,9.024,23.904c6.336,6.336,19.104,12.192,45.408,12.192c26.304,0,38.976-5.76,45.312-12.096c5.856-5.856,9.024-13.152,9.024-24C401.508,214.456,398.34,207.256,392.484,201.4zM347.172,246.904c-17.28,0-26.208-3.552-30.048-7.392c-2.976-2.976-5.088-6.816-5.088-14.112c0-7.296,1.824-11.232,4.992-14.4c3.936-3.936,12.864-7.104,30.144-7.104s25.92,3.264,29.952,7.296c3.168,3.168,5.088,6.912,5.088,14.208c0,7.296-1.824,11.232-4.992,14.4C373.188,243.832,364.452,246.904,347.172,246.904z"/></svg>
