<?xml version="1.0" encoding="utf-8"?><svg version="1.2" baseProfile="tiny" xmlns="http://www.w3.org/2000/svg" xmlns:xlink="http://www.w3.org/1999/xlink" x="0px" y="0px" width="450px" height="1400px" viewBox="0 0 450 1400" xml:space="preserve"><g transform="translate(503.500000, 61.000000) rotate(-90.000000) translate(-503.500000, -61.000000) translate(444.000000, 2.000000)"><path d="M-980.527-166.5v-43.247h11.027v-16.593h-11.027v-45.204h-42.364c-21.118,0-40.572-4.212-54.01-9.956l-9.599,14.04c12.287,4.723,25.085,7.658,42.62,9.317l-8.959,7.786c2.944,2.17,5.375,3.574,9.343,5.999h-42.876v13.785h67.577c6.527,2.936,12.287,4.978,18.942,6.892l3.712-13.785c-15.87-4.467-29.181-11.487-42.108-20.294c6.015,0.383,11.135,0.511,15.358,0.511h28.157v90.749H-980.527z"/><path d="M-1011.503-163.5l0.01-13.97h13.992v-14.651h-13.992l-0.01-33.379h-14.374l0.01,33.379h-39.433c-2.544,0-3.816-1.414-3.816-4.113c0-1.414,0.88-13.458,0.88-13.458l-15.264,1.928l0.01,19.242c0,7.326,4.198,11.053,12.466,11.053h45.157l-0.01,13.97H-1011.503z"/><path d="M-1029.5-214.539l-6.905-10.961c-7.281,5.098-12.68,8.284-22.095,14.02l8.16,11.98C-1042.431-205.235-1036.53-209.059-1029.5-214.539z"/></g><g transform="translate(351.500000, 60.500000) rotate(-90.000000) translate(-351.500000, -60.500000) translate(291.000000, 1.000000)"><path d="M-899.404-32.111c12.221,7.165,22.397,11.091,46.861,13.691v7.73h14.385v-34.6c4.965,1.919,13.608,5.375,19.336,6.782l3.322-14.256c-17.732-5.012-29.558-10.935-41.804-16.66l0.198-13.612l19.248,0.128v16.634l14.003-0.128v-59.241l-14.003,0.128v28.021l-65.559-0.128c-0.891-3.455-1.116-3.795-2.134-7.506h52.401v-13.563h-55.583l-2.981-11.81l-15.276,4.862c5.474,22.135,14.298,46.468,21.427,61.822l13.239-1.663c-1.909-4.094-4.346-12.055-6.382-17.557l27.014,0v6.518l-2.563-1.956l-8.203,11.432c3.055,2.047,4.866,3.371,9.322,5.419c-13.026,4.03-16.593,6.609-25.249,11.727c-8.987-8.669-13.531-14.588-21.814-28.021l-13.3,9.297c8.524,11.125,16.784,20.004,23.276,27.041c-6.62,5.886-15.459,13.309-23.17,22.376l12.761,9.704C-913.144-19.41-907.189-26.113-899.404-32.111z M-888.5-41.258c11.081-5.967,17.545-9.15,32.334-11.242c1.138,0.654,2.023,1.176,3.666,1.83v18.17C-869.818-33.938-876.49-35.369-888.5-41.258z"/></g><g transform="translate(202.000000, 60.500000) rotate(-90.000000) translate(-202.000000, -60.500000) translate(145.000000, 1.000000)"><path d="M-709.103,136.5v-29.092h9.614v24.607h13.02v-24.607h15.969V92.157h-15.969V68.448h-13.02v23.709h-9.614V65.5h-13.658v40.134h-8.446V65.5h-14.424v40.134h-23.338c-2.936,0-4.34-1.41-4.34-4.101c0-1.025,0.766-9.889,0.766-9.889l-15.956,1.922v16.425c0,7.305,4.34,11.022,13.02,11.022h29.848v15.102h14.424v-15.102h8.446V136.5H-709.103z"/><path d="M-682.5,61.5v-39l-89,0v39H-682.5z M-719.5,36.5h24v11h-24V36.5z M-757.5,36.5h26v11h-26V36.5z"/><path d="M-748.5,80.242l-6.76-10.742c-5.72,3.918-11.05,6.698-19.24,11.247l7.67,11.753C-759.94,88.077-754.61,84.665-748.5,80.242z"/></g><g transform="translate(59.000000, 60.500000) rotate(-90.000000) translate(-59.000000, -60.500000) translate(-1.000000, 2.000000)"><path d="M-572.711,234.759l-0.142,22.473h7.869v-23.56h-7.421c0.888-2.175,1.202-3.076,2.09-4.739h19.925v32.521h-20.94v14.459h31.22v-46.981h4.823v41.351h10.787v-98.696h-10.787v41.35h-4.823v-45.957h-31.22v14.459h20.94v31.498h-20.179c-0.888-1.535-1.396-3.071-2.031-4.734h7.615V185.28h-7.869v22.285c-6.726-13.691-11.549-31.221-13.58-46.065l-12.945,4.862c0.888,3.583,1.777,7.294,3.173,11.772h-10.28v65.514c-4.823-7.549-7.234-12.028-11.295-22.009c-6.51,2.502-6.991,9.9-3.807,15.867c6.473,12.284,12.184,21.113,18.275,27.767h6.473c-1.142,3.967-1.904,7.166-2.538,10.237l13.072,4.99C-584.402,266.041-579.438,249.73-572.711,234.759z M-595.5,259.5v-30.801c4.419,0,10.489,0,10.489,0v-15.957c0,0-6.546,0-10.489,0V181.5c5.201,16.723,10.91,28.468,17,39.319C-584.97,233.074-590.425,244.436-595.5,259.5z"/><path d="M-619.391,222.125c3.972-11.913,4.863-14.807,7.903-24.712l-10.473-5.514l-19.75,52.646l12.629,5.957c0,0,2.411-6.985,4.523-12.991C-620.878,230.532-620.28,232.29-619.391,222.125z"/><path d="M-554.5,257.5v-24h-8v24H-554.5z"/><path d="M-554.5,208.5v-23h-8v23H-554.5z"/></g><path d="M245.564,248.819c0,19.626-2.872,33.576-6.702,43.582h16.085c2.681-8.466,5.553-21.839,5.553-43.197c0-27.227-5.457-40.215-11.872-46.661c-5.936-5.965-13.883-9.043-24.128-9.043c-10.245,0-18.191,3.079-24.128,9.043c-6.606,6.542-11.872,19.241-11.872,45.795c0,21.262,2.968,34.346,11.011,42.427c4.404,4.426,10.628,6.734,21.351,6.734h8.904v-59.264h-13.404v41.562c-1.532,0.096-5.074,0.096-7.468-2.309c-4.309-4.329-5.745-15.008-5.745-29.151c0-17.317,3.16-26.361,7.372-30.594c3.16-3.079,7.66-4.714,13.979-4.714c6.128,0,10.915,1.732,14.266,5.099C242.5,221.881,245.564,231.021,245.564,248.819C245.564,248.819,245.564,231.021,245.564,248.819L245.564,248.819L245.564,248.819z"/><path d="M257.5,580.5v-22.127l-52.739-35.442l52.739-35.346V464.5l-67,46.266v23.468l0,0L257.5,580.5L257.5,580.5z"/><path fill="#C60000" d="M304.5,458.5v-19.128L144.5,314.5v19.417L304.5,458.5z"/><path d="M248.436,432.457c6.319-6.35,12.064-18.568,12.064-45.409c0-25.879-5.649-39.059-12.064-45.505c-5.84-5.868-13.117-9.043-23.936-9.043c-10.819,0-18,3.175-23.84,9.043c-6.319,6.35-12.16,19.145-12.16,45.505s5.745,39.059,12.064,45.409c5.84,5.868,13.117,9.043,23.936,9.043C235.415,441.5,242.596,438.325,248.436,432.457z M202.5,386.548c0-17.237,3.551-26.142,7.391-29.973c2.975-2.969,6.815-5.075,14.109-5.075c7.295,0,11.23,1.819,14.397,4.979c3.935,3.926,7.103,12.832,7.103,30.068s-3.263,25.855-7.295,29.877c-3.167,3.16-6.911,5.075-14.205,5.075c-7.295,0-11.23-1.819-14.397-4.979C205.571,412.499,202.5,403.785,202.5,386.548z"/></svg>
